<svg width="19" height="19" viewBox="0 0 19 19" fill="none" xmlns="http://www.w3.org/2000/svg">
<path d="M8.70831 3.16675H3.16665C2.74672 3.16675 2.34399 3.33356 2.04706 3.6305C1.75013 3.92743 1.58331 4.33016 1.58331 4.75008V15.8334C1.58331 16.2533 1.75013 16.6561 2.04706 16.953C2.34399 17.2499 2.74672 17.4167 3.16665 17.4167H14.25C14.6699 17.4167 15.0726 17.2499 15.3696 16.953C15.6665 16.6561 15.8333 16.2533 15.8333 15.8334V10.2917" stroke="#0067CA" stroke-width="1.5" stroke-linecap="round" stroke-linejoin="round"/>
<path d="M14.6458 1.97918C14.9608 1.66424 15.3879 1.4873 15.8333 1.4873C16.2787 1.4873 16.7059 1.66424 17.0208 1.97918C17.3358 2.29413 17.5127 2.72128 17.5127 3.16668C17.5127 3.61208 17.3358 4.03924 17.0208 4.35418L9.49998 11.875L6.33331 12.6667L7.12498 9.50002L14.6458 1.97918Z" stroke="#0067CA" stroke-width="1.5" stroke-linecap="round" stroke-linejoin="round"/>
</svg>
